<svg width="250" height="250" xmlns="http://www.w3.org/2000/svg">
 <g>
  <title>background</title>
  <rect fill="none" id="canvas_background" height="252" width="252" y="-1" x="-1"/>
 </g>

 <g>
  <title>Layer 1</title>
  <g stroke="null" transform="rotate(0.24194790422916412 125.76184844970341,114.99353790283118) " id="svg_23">
   <g stroke="null" id="svg_7" fill="#0D1F8F" transform="matrix(0.052475822950162176,0,0,-0.06552268419992255,-1874.9960908943651,-2233.1675051368816) ">
    <path stroke="null" id="svg_8" d="m37965.070364,-34934.765141c-21,-47 -40,-90 -42,-95c-2,-4 167,-8 375,-8c410,0 433,-3 541,-57c31,-15 81,-53 112,-83c55,-55 120,-161 120,-196c1,-38 30,34 38,93c27,204 -100,386 -297,423c-30,6 -218,10 -431,10l-377,0l-39,-87z"/>
    <path stroke="null" id="svg_9" d="m36581.070364,-35269.765141c-28,-57 -50,-106 -50,-110c0,-5 476,-8 1059,-8l1058,0l33,-22c54,-37 74,-72 74,-128c0,-54 -18,-87 -68,-124c-24,-18 -46,-22 -164,-26l-136,-5l-52,-105c-29,-58 -53,-107 -53,-110c-1,-3 95,-3 212,0l213,5l66,33c184,90 258,312 166,500c-32,65 -107,138 -176,170l-57,27l-1038,3l-1038,2l-49,-102z"/>
    <path stroke="null" id="svg_10" d="m37598.070364,-35697.765141c-54,-111 -97,-203 -97,-205c0,-2 54,-5 119,-7l120,-3l14,30c8,17 54,110 101,208l85,177l-123,0l-123,0l-96,-200z"/>
    <path stroke="null" id="svg_11" d="m36216.070364,-35766.765141c-172,-49 -309,-180 -366,-348c-33,-95 -32,-250 0,-343c48,-137 153,-256 279,-316c119,-57 34,-55 2030,-52l1837,3l64,23c203,73 342,249 366,462c23,206 -103,439 -287,529c-121,60 -129,61 -630,61l-458,0l-19,-37c-10,-21 -37,-58 -59,-83l-39,-45l478,3c393,2 491,0 550,-13c119,-24 215,-101 268,-214c22,-48 26,-69 26,-151c0,-82 -4,-103 -26,-150c-39,-82 -99,-144 -177,-182l-67,-33l-1860,0l-1860,0l-57,27c-205,96 -281,350 -163,539c35,55 120,126 183,151c57,23 61,23 588,26l530,3l37,75c20,41 37,77 37,79c0,3 -258,5 -572,4c-511,0 -579,-2 -633,-18z"/>
    <path stroke="null" id="svg_12" d="m36318.070364,-36167.765141c-5,-18 0,-20 49,-20l54,0l0,-132l0,-131l25,23c24,22 25,29 25,132l0,108l55,0c48,0 55,2 55,20c0,19 -7,20 -129,20c-120,0 -129,-1 -134,-20z"/>
    <path stroke="null" id="svg_13" d="m36801.070364,-36297.765141l0,-150l105,0c89,0 104,2 99,15c-5,11 -23,15 -75,15l-69,0l0,55l0,55l65,0c51,0 65,3 65,15c0,12 -14,15 -65,15l-65,0l0,45l0,45l58,0c46,0 63,4 77,20c18,20 17,20 -88,20l-107,0l0,-150z"/>
    <path stroke="null" id="svg_14" d="m37308.070364,-36168.765141c-28,-15 -44,-33 -59,-66c-33,-75 -14,-145 54,-196c35,-26 120,-27 167,-3c30,16 32,19 18,33c-14,14 -18,14 -38,-1c-46,-32 -124,-11 -147,39c-7,14 -12,46 -12,71c0,64 40,104 102,104c24,0 49,-5 56,-12c10,-10 16,-9 28,4c15,15 14,17 -14,32c-42,22 -109,19 -155,-5z"/>
    <path stroke="null" id="svg_15" d="m37728.070364,-36153.765141c-4,-4 -7,-72 -7,-151l0,-143l30,0c29,0 30,1 30,48c0,47 2,49 95,142c52,52 95,98 95,102c0,5 -10,8 -23,8c-15,0 -47,-24 -92,-70l-70,-71l-5,68c-4,59 -8,68 -25,71c-12,2 -24,0 -28,-4z"/>
    <path stroke="null" id="svg_16" d="m38209.070364,-36153.765141c-5,-4 -8,-72 -8,-151l0,-143l85,0c98,0 149,17 166,54c17,37 3,76 -31,89l-29,11l25,23c32,29 29,69 -6,95c-18,13 -50,20 -110,24c-47,4 -88,3 -92,-2zm166,-50c9,-8 16,-22 16,-29c0,-20 -40,-45 -72,-45c-18,0 -28,-5 -28,-15c0,-10 10,-15 30,-15c118,0 115,-98 -4,-108l-56,-4l0,116l0,116l49,0c32,0 55,-6 65,-16z"/>
    <path stroke="null" id="svg_17" d="m38740.070364,-36167.765141c-45,-24 -69,-72 -69,-137c0,-92 59,-147 158,-146c57,0 89,17 126,66c27,37 28,120 0,167c-38,67 -140,90 -215,50zm152,-49c23,-24 29,-38 29,-75c0,-58 -17,-94 -51,-112c-41,-21 -74,-17 -108,12c-36,30 -48,80 -32,135c14,47 44,69 94,69c29,0 46,-7 68,-29z"/>
    <path stroke="null" id="svg_18" d="m39211.070364,-36297.765141l0,-150l25,0l25,0l0,150l0,150l-25,0l-25,0l0,-150z"/>
    <path stroke="null" id="svg_19" d="m39421.070364,-36297.765141l0,-150l25,0l25,0l0,150l0,150l-25,0l-25,0l0,-150z"/>
    <path stroke="null" id="svg_20" d="m39731.070364,-36296.765141l0,-151l73,0c117,0 176,44 184,137c9,100 -45,148 -180,159l-77,7l0,-152zm177,75c34,-40 33,-123 -2,-158c-24,-24 -63,-38 -106,-38c-18,0 -19,9 -19,116l0,117l52,-5c40,-4 57,-11 75,-32z"/>
    <path stroke="null" id="svg_21" d="m39291.070364,-36223.765141c0,-30 11,-56 50,-114l50,-75l0,40c0,31 -11,56 -50,114l-50,75l0,-40z"/>
    <path stroke="null" id="svg_22" d="m37863.070364,-36310.765141c-8,-10 -1,-29 30,-75c34,-53 45,-62 70,-62c33,0 34,-2 -29,88c-46,65 -54,70 -71,49z"/>
   </g>
  </g>
 </g>
</svg>